<svg height="490pt" viewBox="0 -23 490.04 490" width="490pt" xmlns="http://www.w3.org/2000/svg"><path d="m483.886719 236.761719-38 16c-.746094.320312-1.441407.75-2.0625 1.273437l-51.296875 43.503906-.902344-2.191406c-4.964844-11.894531-18.265625-17.9375-30.488281-13.847656l-5.601563 1.886719-4.144531-4.191407-19.558594-32.59375 22.519531-102.808593 11.625-5.824219c7.148438-3.601562 11.457032-11.121094 10.957032-19.109375-.5-7.992187-5.71875-14.910156-13.261719-17.59375l4.800781-21.910156c.796875-4.253907-1.925781-8.371094-6.152344-9.292969-4.230468-.925781-8.425781 1.679688-9.472656 5.875l-5.878906 26.824219-61.65625 30.871093-23.199219-19.894531.359375-2.046875c1.339844-8.148437-.1875-16.507812-4.320312-23.65625 13.722656-.949218 26.210937-8.277344 33.722656-19.804687 7.511719-11.523438 9.179688-25.90625 4.507812-38.84375l28.175782-14.066407c3.972656-1.96875 5.597656-6.785156 3.625-10.757812-1.96875-3.972656-6.789063-5.59375-10.757813-3.625l-29.105469 14.550781c-15.402343-18.101562-42.410156-20.679687-60.957031-5.816406-18.550781 14.863281-21.921875 41.78125-7.609375 60.761719-2.367187.476562-4.675781 1.191406-6.898437 2.136718l1.128906-5.96875c.648437-3.4375-.128906-6.992187-2.15625-9.84375-2.027344-2.855468-5.128906-4.757812-8.589844-5.277343l-37.117187-5.496094c-10.957032-1.6875-21.242188 5.726563-23.097656 16.65625l-9.335938 52.992187-10.222656-2.191406c-4.417969-.945312-9.03125-.082031-12.804688 2.402344-3.773437 2.484375-6.394531 6.382812-7.269531 10.8125l-7.71875 39.121094c-.886719 4.507812.101563 9.179687 2.738281 12.9375 2.636719 3.761718 6.691406 6.28125 11.230469 6.984375l19.464844 3.007812h.109375l45.089844 6.054688-.433594 1.28125c-3.769532 11.167969-.859375 23.507812 7.503906 31.816406.257812.253906.5625.445313.800781.695313l18.816407 53.269531-39.023438 59.304687-20.089844 23.808594c-1.578125 1.867188-2.214844 4.351562-1.734375 6.75.484375 2.394531 2.035157 4.4375 4.214844 5.546875l38.671875 19.710937-17.261719 10.402344-165.769531 20.796875 1.984375 15.875 167.457031-21c1.113282-.136719 2.1875-.507812 3.144532-1.097656l106.894531-64.601563 56.144531-20.6875 55.605469-20.488281 5.753906-2.117187c.875-.328125 1.6875-.804688 2.398437-1.410156l53.785157-45.597657 36.871093-15.519531zm-128.007813 63.375 10.402344-3.496094c4.242188-1.410156 8.859375.679687 10.597656 4.800781l1.074219 2.585938-39.359375 14.511718-1.203125.4375-6.488281-15.832031 13.074218-8.710937 3.695313 3.746094c2.140625 2.160156 5.320313 2.917968 8.207031 1.957031zm-153.832031-79.199219c-4.589844-.414062-8.742187-2.90625-11.261719-6.765625-2.523437-3.859375-3.144531-8.660156-1.679687-13.035156l1.65625-5h49.109375l51.890625 14.832031 23.054687 38.402344-4.183594 19.078125-22.855468-36.550781c-1.320313-2.132813-3.5625-3.523438-6.058594-3.761719zm32.21875-40.800781h-39.839844l3.710938-22.542969 2.617187-.230469c13.433594-1.226562 26.566406-4.695312 38.855469-10.265625l.367187.320313zm-33.425781-38.917969 4.71875-28.640625c.925781 4.167969 3.167968 7.929687 6.402344 10.71875l14.078124 12.113281c-8.128906 2.964844-16.59375 4.914063-25.199218 5.808594zm121.496094 183.320312-8.273438 3.046876 3.320312-15.152344zm11.871093-42.800781-7.199219 4.800781-3.601562 2.398438-.644531-1.039062 4.046875-18.488282zm-14.398437-55.105469-15.960938-26.589843c-1.042968-1.742188-2.710937-3.019531-4.664062-3.578125l-49.070313-14.046875 4-22.847657 15.199219 13.070313c6.117188 5.257813 14.789062 6.328125 22 2.714844l44.648438-22.351563zm35.382812-110.085937c.953125-.484375 2.058594-.5625 3.074219-.226563 1 .332032 1.828125 1.054688 2.292969 2 .988281 1.96875.199218 4.367188-1.765625 5.363282l-74.6875 37.398437c-1.445313.695313-3.160157.476563-4.386719-.550781l-33.527344-28.875-23.785156-20.460938c-1.222656-1.058593-1.6875-2.746093-1.183594-4.28125.507813-1.535156 1.886719-2.613281 3.496094-2.734374h.296875c.957031 0 1.882813.34375 2.609375.964843l55.320312 47.601563zm-72.199218-72.410156c.042968 12.015625-7.605469 22.707031-18.988282 26.550781-11.382812 3.84375-23.945312-.027344-31.195312-9.605469l48.984375-24.472656c.746093 2.441406 1.148437 4.976563 1.199219 7.527344zm-28-28c6.714843.027343 13.191406 2.484375 18.230468 6.921875l-46.054687 22.992187c0-.640625-.191407-1.25-.191407-1.898437.015626-15.453125 12.535157-27.984375 27.992188-28.015625zm-24.671876 69.808593c7.503907 1.191407 13.640626 6.625 15.734376 13.929688l-8-6.882812c-8.167969-7.058594-20.472657-6.316407-27.734376 1.675781 4.320313-6.648438 12.1875-10.078125 20-8.722657zm-118.929687 82.9375 7.722656-39.128906-7.855469-1.542968 8.871094.871093 10.78125 2.3125-7.09375 40.304688-11.71875-1.808594zm47.394531-103.464843c.4375-2.339844 2.632813-3.921875 4.992188-3.601563l33.878906 5.019532-6.160156 32.664062v.175781l-13.136719 79.503907-38.703125-5.203126zm58.695313 214.847656-15.273438-43.253906 28.578125 2.597656 6.519532 42.601563-46.601563 68.078124-11.046875-6.808593 36.953125-56.160157c1.375-2.085937 1.699219-4.695312.871094-7.054687zm-18.328125 106.96875-38.527344-19.632813 9.472656-11.199218 18.695313 11.527344c.628906.382812 1.3125.679687 2.023437.878906.703125.203125 1.433594.304687 2.167969.304687h.925781c7.273438.015625 13.632813 4.890625 15.539063 11.90625l-2.464844 1.488281zm74.070312-44.601563c-.476562.175782-.9375.398438-1.375.664063l-48.457031 29.296875c-3.277344-7.605469-9.363281-13.648438-16.992187-16.878906l45.914062-67.074219c1.148438-1.671875 1.617188-3.722656 1.304688-5.726563l-6.402344-41.816406 29.121094 2.648438 29.425781 47.078125-9.488281 43.320312zm0 0"/></svg>