<svg xmlns="http://www.w3.org/2000/svg" height="730pt" version="1.1" viewBox="0 0 730 730" width="730pt">
<g id="surface1">
<path d="M 365 730 C 566.585938 730 730 566.585938 730 365 C 730 163.414062 566.585938 0 365 0 C 163.414062 0 0 163.414062 0 365 C 0 566.585938 163.414062 730 365 730 Z M 86.601562 568.636719 C 95.203125 538.796875 147.734375 370.160156 245.386719 315.449219 C 273.171875 299.5 305.992188 294.769531 337.148438 302.21875 C 287.492188 425.03125 253.03125 553.441406 234.535156 684.613281 C 175.492188 660.308594 124.300781 620.175781 86.601562 568.636719 Z M 253.71875 691.625 C 271.929688 559.96875 306.398438 431.078125 356.332031 307.90625 C 385.523438 319.058594 409.511719 340.683594 423.617188 368.574219 C 480.382812 475.683594 429.375 669.996094 419.183594 705.984375 C 363.714844 714.820312 306.933594 709.929688 253.789062 691.761719 Z M 440.953125 701.617188 C 455.835938 647.035156 498.046875 466.6875 440.953125 359.242188 C 424.828125 327.269531 397.414062 302.421875 364.007812 289.511719 C 382.730469 245.582031 401.585938 207.273438 419.183594 174.925781 C 532.050781 218.65625 603.171875 298.84375 629.640625 414.09375 C 641.890625 467.910156 644.132812 523.53125 636.253906 578.164062 C 587.242188 640.5 518.28125 684.09375 440.953125 701.617188 Z M 710.152344 365 C 710.226562 428.261719 692.796875 490.3125 659.804688 544.292969 C 662.804688 499.371094 659.328125 454.25 649.484375 410.316406 C 629.632812 326.296875 575.78125 215.28125 428.976562 157.324219 C 439.359375 138.9375 449.21875 122.59375 458.148438 108.5625 C 483.085938 116.242188 509.070312 119.964844 535.160156 119.613281 C 557.324219 119.449219 579.445312 117.574219 601.320312 113.992188 C 670.734375 179.019531 710.132812 269.882812 710.152344 365 Z M 500.625 47.4375 C 529.789062 59.976562 557.078125 76.476562 581.738281 96.460938 C 537.871094 101.816406 500.230469 100.097656 469.265625 91.097656 C 484.085938 69.667969 494.867188 54.976562 500.625 47.4375 Z M 450.078125 84.289062 C 441.089844 80.484375 432.53125 75.738281 424.539062 70.125 C 406.753906 57.816406 392.953125 40.566406 384.847656 20.507812 C 417.808594 22.441406 450.328125 29.132812 481.371094 40.355469 C 474.757812 49.289062 463.511719 64.105469 450.078125 84.550781 Z M 363.613281 19.914062 C 372.078125 46.6875 389.121094 69.9375 412.105469 86.074219 C 420.605469 92.125 429.695312 97.3125 439.234375 101.554688 C 430.414062 115.757812 420.707031 132.074219 410.121094 150.511719 C 229.570312 88.1875 105.789062 171.414062 49.6875 224.875 C 104.953125 100.789062 227.777344 20.59375 363.613281 19.914062 Z M 32.351562 273.171875 C 46.113281 254.25 173.140625 91.296875 400.460938 167.976562 C 382.730469 200.796875 363.808594 239.296875 345.152344 283.429688 C 308.234375 273.726562 268.988281 278.988281 235.921875 298.046875 C 141.976562 350.375 89.25 493.480469 72.246094 547.402344 C 21.136719 465.582031 6.742188 366.058594 32.546875 273.105469 Z M 32.351562 273.171875 " style=" stroke:none;fill-rule:nonzero;fill:rgb(0%,0%,0%);fill-opacity:1;" />
</g>
</svg>