<?xml version="1.0" encoding="iso-8859-1"?>
<!-- Generator: Adobe Illustrator 19.0.0, SVG Export Plug-In . SVG Version: 6.00 Build 0)  -->
<svg version="1.1" id="Layer_1" xmlns="http://www.w3.org/2000/svg" xmlns:xlink="http://www.w3.org/1999/xlink" x="0px" y="0px"
	 viewBox="0 0 512 512" style="enable-background:new 0 0 512 512;" xml:space="preserve">
<g>
	<g>
		<path d="M506.264,414.938c-0.515-0.137-1.031-0.218-1.544-0.248c-1.024-0.06-2.03,0.087-2.966,0.413
			c-0.234,0.081-0.464,0.174-0.689,0.277c-2.023,0.927-3.63,2.716-4.247,5.033l-0.001,0.003
			c-2.795,10.496-13.605,16.761-24.104,13.968L340.329,399.15c2.059-0.917,3.71-2.7,4.334-5.046c1.096-4.12-1.355-8.348-5.475-9.446
			l-36.752-9.782l0.591-2.219c0.723-2.716-0.089-5.612-2.117-7.557l-22.735-21.807l17.979-27.827c1.246-1.93,1.569-4.313,0.88-6.503
			c-0.689-2.191-2.317-3.962-4.441-4.831c-0.632-0.258-1.252-0.512-1.867-0.764l34.781-54.977
			c9.328-14.742,5.578-34.323-8.536-44.578l-23.962-17.409l34.916,12.89l9.472,58.941c0.609,3.787,3.88,6.496,7.612,6.496
			c0.345,0,0.694-0.023,1.046-0.071l82.706-11.198c0.59-0.08,1.161-0.234,1.708-0.442l24.487-3.609
			c3.051-0.45,5.542-2.672,6.334-5.652l8.912-33.486c0.668-2.513,0.027-5.196-1.709-7.134s-4.33-2.873-6.901-2.486l-22.288,3.357
			c-0.653-0.538-1.399-0.984-2.237-1.293l-62.172-22.952l-1.405-13.773l45.518-1.918c2.752-0.115,5.234-1.689,6.512-4.128
			l19.816-37.807c2.208-0.486,4.163-1.927,5.24-4.061c12.766-25.325,2.716-56.641-22.404-69.808
			c-25.527-13.38-57.182-3.496-70.561,22.03c-6.097,11.633-7.594,25.025-4.213,37.706c0.404,1.518,0.879,3.01,1.411,4.472
			c-34.21-12.958-66.675-18.391-96.617-16.106c-22.519,1.718-43.113,7.668-61.282,17.686l-81.93-30.247
			c-2.038-0.752-4.299-0.61-6.228,0.389c-1.929,1-3.346,2.767-3.905,4.867l-4.947,18.586c-1.025,3.85,1.049,7.848,4.786,9.227
			l57.162,21.103c-8.711,6.378-15.001,15.679-17.569,26.513c-5.691,24.012,9.436,48.805,33.722,55.268l63.133,16.804l-23.4,41.62
			c-0.246-0.003-0.471,0.01-0.713,0.025c-3.316,0.205-6.129,2.509-6.984,5.72l-16.492,61.961l-22.561-6.005
			c-4.121-1.099-8.349,1.354-9.446,5.474c-0.622,2.337-0.1,4.709,1.219,6.524L14.819,312.511c-1.976-0.526-4.085-0.245-5.857,0.781
			c-1.771,1.026-3.062,2.715-3.589,4.693l-5.112,19.207c-1.096,4.12,1.355,8.348,5.474,9.446l457.895,121.874
			c3.018,0.803,6.046,1.187,9.03,1.186c15.536-0.001,29.785-10.399,33.966-26.105l5.112-19.207
			C512.836,420.264,510.384,416.036,506.264,414.938z M452.257,217.676l-4.578,17.202l-13.701,2.019l-2.86-16.037L452.257,217.676z
			 M283.561,369.851l-45.316-12.061l-4.228-1.125l14.307-53.752c7.095,2.793,18.369,7.338,29.811,11.994l-16.384,25.358
			c-2.007,3.107-1.529,7.201,1.14,9.761L283.561,369.851z M408.556,208.651l-7.458,1.201l-24.036-8.873l-0.419-4.109
			L408.556,208.651z M413.916,148.84l-41.992,1.769l-1.635-16.037c1.666,1.398,3.419,2.706,5.268,3.897
			c1.285,0.828,2.736,1.231,4.18,1.231c2.018,0,4.018-0.789,5.513-2.314l24.366-24.836l20.185,5.987L413.916,148.84z M371.29,77.469
			c6.576-12.545,19.414-19.728,32.683-19.728c5.757,0,11.595,1.351,17.036,4.203c15.784,8.273,23.124,26.714,18.148,43.263
			l-29.606-8.782c-2.741-0.811-5.704-0.044-7.705,1.995l-22.849,23.289C366.791,110.613,363.362,92.595,371.29,77.469z
			 M354.178,128.776l9.632,94.444c0.215,2.114,1.293,4.046,2.979,5.34c1.685,1.295,3.827,1.837,5.929,1.499l28.758-4.631
			c0.01-0.002,0.021-0.003,0.031-0.005l9.834-1.583l4.505-0.678l2.852,15.989l-8.019,1.182l-59.232,8.02l-8.97-55.818
			c-0.002-0.018-0.006-0.035-0.008-0.054l-4.591-28.568c-0.676-4.208-4.622-7.077-8.848-6.397c-2.228,0.358-4.073,1.643-5.221,3.391
			l-106.652-39.374C244.434,110.511,289.964,103.195,354.178,128.776z M116.633,104.833l0.959-3.6l77.357,28.558
			c0.006,0.002,0.011,0.004,0.017,0.006l129.473,47.798l0.675,4.203L116.633,104.833z M181.982,204.846
			c-16.284-4.332-26.454-20.835-22.673-36.787c2.406-10.156,9.716-18.308,19.552-21.805c0.803-0.285,1.525-0.695,2.162-1.192
			l61.13,22.568c0.53,0.963,1.268,1.831,2.216,2.52l63.529,46.154c7.546,5.483,9.55,15.952,4.564,23.833l-36.256,57.308
			c-7.777-3.163-13.648-5.529-18.107-7.296l22.174-39.436c2.326-4.138,2.601-9.018,0.757-13.392
			c-1.846-4.374-5.534-7.583-10.123-8.804L181.982,204.846z M254.724,243.913c0.605-1.076,1.064-2.204,1.39-3.357l10.572,2.814
			l-23.404,41.628c-0.255-0.01-0.474,0.003-0.709,0.017c-1.257,0.078-2.439,0.459-3.473,1.075c-2.481-1.032-4.652-1.929-6.565-2.711
			L254.724,243.913z M222.78,296.107c2.964,1.19,6.564,2.661,10.263,4.192l-13.946,52.395l-10.626-2.828L222.78,296.107z
			 M467.6,453.592L17.167,333.703l1.141-4.288l450.434,119.888c5.598,1.49,11.248,1.536,16.55,0.365
			C480.545,453.623,474.017,455.297,467.6,453.592z"/>
	</g>
</g>
<g>
</g>
<g>
</g>
<g>
</g>
<g>
</g>
<g>
</g>
<g>
</g>
<g>
</g>
<g>
</g>
<g>
</g>
<g>
</g>
<g>
</g>
<g>
</g>
<g>
</g>
<g>
</g>
<g>
</g>
</svg>
